<svg xmlns="http://www.w3.org/2000/svg" viewBox="0 0 32 32" fill="none">
  <rect width="32" height="32" rx="6" fill="#2d5a4a"/>
  <g transform="translate(4, 5)">
    <!-- Book cover -->
    <path d="M12 2C8 2 4 3 2 4v18c2-1 6-2 10-2s8 1 10 2V4c-2-1-6-2-10-2z" fill="#f8f6f3" stroke="#d4a574" stroke-width="1"/>
    <!-- Center spine -->
    <path d="M12 2v18" stroke="#d4a574" stroke-width="1.5"/>
    <!-- Page lines left -->
    <path d="M4 7h6M4 10h6M4 13h6M4 16h5" stroke="#2d5a4a" stroke-width="0.8" stroke-linecap="round" opacity="0.5"/>
    <!-- Page lines right -->
    <path d="M14 7h6M14 10h6M14 13h6M14 16h5" stroke="#2d5a4a" stroke-width="0.8" stroke-linecap="round" opacity="0.5"/>
    <!-- Cross bookmark -->
    <path d="M12 0v4M10 2h4" stroke="#d4a574" stroke-width="1.5" stroke-linecap="round"/>
  </g>
</svg>
